STARTFONT 2.2
FONT -FontForge-Nouveau IBM-Medium-R-Normal--15-720-15-15-M-80-ISO10646-1
SIZE 72 15 15
FONTBOUNDINGBOX 8 16 0 -4
METRICSSET 2
SWIDTH 543 0
DWIDTH 8 0
SWIDTH1 0 0
DWIDTH1 0 0
VVECTOR 7,12
COMMENT "Generated by fontforge, http://fontforge.sourceforge.net"
COMMENT "Freeware"
STARTPROPERTIES 39
FOUNDRY "FontForge"
FAMILY_NAME "Nouveau IBM"
WEIGHT_NAME "Medium"
SLANT "R"
SETWIDTH_NAME "Normal"
ADD_STYLE_NAME ""
PIXEL_SIZE 15
POINT_SIZE 720
RESOLUTION_X 15
RESOLUTION_Y 15
SPACING "M"
AVERAGE_WIDTH 80
CHARSET_REGISTRY "ISO10646"
CHARSET_ENCODING "1"
FONTNAME_REGISTRY ""
CHARSET_COLLECTIONS "ASCII ISOLatin1Encoding ISO8859-5 ISO8859-7 ISO10646-1"
FONT_NAME "Nouveau_IBM"
FACE_NAME "Nouveau IBM"
FONT_VERSION "1.600"
FONT_ASCENT 12
FONT_DESCENT 3
UNDERLINE_POSITION -3
UNDERLINE_THICKNESS 1
X_HEIGHT 6
CAP_HEIGHT 9
RAW_ASCENT 812
RAW_DESCENT 187
NORM_SPACE 8
RELATIVE_WEIGHT 50
RELATIVE_SETWIDTH 50
SUPERSCRIPT_X 0
SUPERSCRIPT_Y 7
SUPERSCRIPT_SIZE 10
SUBSCRIPT_X 0
SUBSCRIPT_Y 2
SUBSCRIPT_SIZE 10
FIGURE_WIDTH 8
AVG_LOWERCASE_WIDTH 80
AVG_UPPERCASE_WIDTH 80
ENDPROPERTIES
CHARS 449
STARTCHAR space
ENCODING 32
BBX 1 1 0 0
BITMAP
00
ENDCHAR
STARTCHAR exclam
ENCODING 33
BBX 4 10 2 0
BITMAP
60
F0
F0
F0
60
60
60
00
60
60
ENDCHAR
STARTCHAR quotedbl
ENCODING 34
BBX 6 4 1 7
BITMAP
CC
CC
CC
48
ENDCHAR
STARTCHAR numbersign
ENCODING 35
BBX 7 8 0 0
BITMAP
6C
FE
6C
6C
6C
FE
6C
6C
ENDCHAR
STARTCHAR dollar
ENCODING 36
BBX 7 13 0 -2
BITMAP
18
7C
C6
C6
C2
7C
06
06
86
C6
7C
18
18
ENDCHAR
STARTCHAR percent
ENCODING 37
BBX 7 8 0 0
BITMAP
C2
C6
0C
18
30
60
C6
86
ENDCHAR
STARTCHAR ampersand
ENCODING 38
BBX 7 10 0 0
BITMAP
38
6C
6C
38
70
DE
CC
CC
CC
76
ENDCHAR
STARTCHAR quotesingle
ENCODING 39
BBX 3 3 2 7
BITMAP
60
60
C0
ENDCHAR
STARTCHAR parenleft
ENCODING 40
BBX 4 10 2 0
BITMAP
30
60
C0
C0
C0
C0
C0
C0
60
30
ENDCHAR
STARTCHAR parenright
ENCODING 41
BBX 4 10 2 0
BITMAP
C0
60
30
30
30
30
30
30
60
C0
ENDCHAR
STARTCHAR asterisk
ENCODING 42
BBX 8 5 0 2
BITMAP
66
3C
FF
3C
66
ENDCHAR
STARTCHAR plus
ENCODING 43
BBX 4 4 2 3
BITMAP
60
60
F0
60
ENDCHAR
STARTCHAR comma
ENCODING 44
BBX 3 4 2 -1
BITMAP
60
60
60
C0
ENDCHAR
STARTCHAR hyphen
ENCODING 45
BBX 7 1 0 4
BITMAP
FE
ENDCHAR
STARTCHAR period
ENCODING 46
BBX 2 2 3 0
BITMAP
C0
C0
ENDCHAR
STARTCHAR slash
ENCODING 47
BBX 7 8 0 0
BITMAP
02
06
0C
18
30
60
C0
80
ENDCHAR
STARTCHAR zero
ENCODING 48
BBX 8 10 0 0
BITMAP
3C
66
C3
C3
DB
DB
C3
C3
66
3C
ENDCHAR
STARTCHAR one
ENCODING 49
BBX 4 10 2 0
BITMAP
60
60
E0
60
60
60
60
60
60
F0
ENDCHAR
STARTCHAR two
ENCODING 50
BBX 7 10 0 0
BITMAP
7C
C6
06
0C
18
30
60
C0
C6
FE
ENDCHAR
STARTCHAR three
ENCODING 51
BBX 7 10 0 0
BITMAP
7C
C6
06
06
3C
06
06
06
C6
7C
ENDCHAR
STARTCHAR four
ENCODING 52
BBX 6 10 1 0
BITMAP
18
38
38
58
98
FC
18
18
18
3C
ENDCHAR
STARTCHAR five
ENCODING 53
BBX 7 10 0 0
BITMAP
FE
C0
C0
C0
FC
06
06
06
C6
7C
ENDCHAR
STARTCHAR six
ENCODING 54
BBX 7 10 0 0
BITMAP
38
60
C0
C0
FC
C6
C6
C6
C6
7C
ENDCHAR
STARTCHAR seven
ENCODING 55
BBX 7 10 0 0
BITMAP
FE
C6
06
06
0C
18
30
30
30
30
ENDCHAR
STARTCHAR eight
ENCODING 56
BBX 7 10 0 0
BITMAP
7C
C6
C6
C6
7C
C6
C6
C6
C6
7C
ENDCHAR
STARTCHAR nine
ENCODING 57
BBX 7 10 0 0
BITMAP
7C
C6
C6
C6
7E
06
06
06
0C
78
ENDCHAR
STARTCHAR colon
ENCODING 58
BBX 2 7 3 1
BITMAP
C0
C0
00
00
00
C0
C0
ENDCHAR
STARTCHAR semicolon
ENCODING 59
BBX 3 8 2 0
BITMAP
60
60
00
00
00
60
60
C0
ENDCHAR
STARTCHAR less
ENCODING 60
BBX 6 8 1 0
BITMAP
18
30
60
C0
60
30
18
0C
ENDCHAR
STARTCHAR equal
ENCODING 61
BBX 7 4 0 3
BITMAP
FE
00
00
FE
ENDCHAR
STARTCHAR greater
ENCODING 62
BBX 5 8 1 0
BITMAP
C0
60
30
18
18
30
60
C0
ENDCHAR
STARTCHAR question
ENCODING 63
BBX 7 10 0 0
BITMAP
7C
C6
C6
0C
18
18
18
00
18
18
ENDCHAR
STARTCHAR at
ENCODING 64
BBX 7 9 0 0
BITMAP
7C
C6
C6
DE
DE
DC
C0
C0
7C
ENDCHAR
STARTCHAR A
ENCODING 65
BBX 7 10 0 0
BITMAP
10
38
6C
C6
C6
FE
C6
C6
C6
C6
ENDCHAR
STARTCHAR B
ENCODING 66
BBX 7 10 0 0
BITMAP
FC
66
66
66
7C
66
66
66
66
FC
ENDCHAR
STARTCHAR C
ENCODING 67
BBX 7 10 0 0
BITMAP
3C
66
C2
C0
C0
C0
C0
C2
66
3C
ENDCHAR
STARTCHAR D
ENCODING 68
BBX 7 10 0 0
BITMAP
F8
6C
66
66
66
66
66
66
6C
F8
ENDCHAR
STARTCHAR E
ENCODING 69
BBX 7 10 0 0
BITMAP
FE
66
62
68
78
68
60
60
66
FE
ENDCHAR
STARTCHAR F
ENCODING 70
BBX 7 10 0 0
BITMAP
FE
66
62
68
78
68
60
60
60
F0
ENDCHAR
STARTCHAR G
ENCODING 71
BBX 7 10 0 0
BITMAP
3C
66
C2
C0
C0
CE
C6
C6
66
3A
ENDCHAR
STARTCHAR H
ENCODING 72
BBX 7 10 0 0
BITMAP
C6
C6
C6
C6
FE
C6
C6
C6
C6
C6
ENDCHAR
STARTCHAR I
ENCODING 73
BBX 4 10 2 0
BITMAP
F0
60
60
60
60
60
60
60
60
F0
ENDCHAR
STARTCHAR J
ENCODING 74
BBX 7 10 0 0
BITMAP
1E
0C
0C
0C
0C
0C
0C
CC
CC
78
ENDCHAR
STARTCHAR K
ENCODING 75
BBX 7 10 0 0
BITMAP
E6
66
66
6C
78
78
6C
66
66
E6
ENDCHAR
STARTCHAR L
ENCODING 76
BBX 7 10 0 0
BITMAP
F0
60
60
60
60
60
60
60
66
FE
ENDCHAR
STARTCHAR M
ENCODING 77
BBX 8 10 0 0
BITMAP
C3
E7
FF
FF
DB
C3
C3
C3
C3
C3
ENDCHAR
STARTCHAR N
ENCODING 78
BBX 7 10 0 0
BITMAP
C6
E6
F6
FE
DE
CE
C6
C6
C6
C6
ENDCHAR
STARTCHAR O
ENCODING 79
BBX 7 10 0 0
BITMAP
7C
C6
C6
C6
C6
C6
C6
C6
C6
7C
ENDCHAR
STARTCHAR P
ENCODING 80
BBX 7 10 0 0
BITMAP
FC
66
66
66
7C
60
60
60
60
F0
ENDCHAR
STARTCHAR Q
ENCODING 81
BBX 7 11 0 -1
BITMAP
7C
C6
C6
C6
C6
C6
C6
C6
DE
7C
0E
ENDCHAR
STARTCHAR R
ENCODING 82
BBX 7 10 0 0
BITMAP
FC
66
66
66
7C
6C
66
66
66
E6
ENDCHAR
STARTCHAR S
ENCODING 83
BBX 7 10 0 0
BITMAP
7C
C6
C6
60
38
0C
06
06
C6
7C
ENDCHAR
STARTCHAR T
ENCODING 84
BBX 8 10 0 0
BITMAP
FF
DB
99
18
18
18
18
18
18
3C
ENDCHAR
STARTCHAR U
ENCODING 85
BBX 7 10 0 0
BITMAP
C6
C6
C6
C6
C6
C6
C6
C6
C6
7C
ENDCHAR
STARTCHAR V
ENCODING 86
BBX 8 10 0 0
BITMAP
C3
C3
C3
C3
C3
C3
C3
66
3C
18
ENDCHAR
STARTCHAR W
ENCODING 87
BBX 8 10 0 0
BITMAP
C3
C3
C3
C3
C3
DB
DB
FF
66
66
ENDCHAR
STARTCHAR X
ENCODING 88
BBX 8 10 0 0
BITMAP
C3
C3
66
3C
18
18
3C
66
C3
C3
ENDCHAR
STARTCHAR Y
ENCODING 89
BBX 8 10 0 0
BITMAP
C3
C3
C3
66
3C
18
18
18
18
3C
ENDCHAR
STARTCHAR Z
ENCODING 90
BBX 7 10 0 0
BITMAP
FE
C2
84
08
10
30
60
C0
C6
FE
ENDCHAR
STARTCHAR bracketleft
ENCODING 91
BBX 3 10 2 0
BITMAP
E0
C0
C0
C0
C0
C0
C0
C0
C0
E0
ENDCHAR
STARTCHAR backslash
ENCODING 92
BBX 7 8 0 0
BITMAP
C0
E0
70
38
1C
0E
06
02
ENDCHAR
STARTCHAR bracketright
ENCODING 93
BBX 3 10 3 0
BITMAP
E0
60
60
60
60
60
60
60
60
E0
ENDCHAR
STARTCHAR asciicircum
ENCODING 94
BBX 7 4 0 8
BITMAP
10
38
6C
C6
ENDCHAR
STARTCHAR underscore
ENCODING 95
BBX 8 1 0 -3
BITMAP
FF
ENDCHAR
STARTCHAR grave
ENCODING 96
BBX 3 2 2 9
BITMAP
C0
60
ENDCHAR
STARTCHAR a
ENCODING 97
BBX 7 7 0 0
BITMAP
78
0C
7C
CC
CC
CC
76
ENDCHAR
STARTCHAR b
ENCODING 98
BBX 7 10 0 0
BITMAP
E0
60
60
78
6C
66
66
66
66
7C
ENDCHAR
STARTCHAR c
ENCODING 99
BBX 7 7 0 0
BITMAP
7C
C6
C0
C0
C0
C6
7C
ENDCHAR
STARTCHAR d
ENCODING 100
BBX 7 10 0 0
BITMAP
1C
0C
0C
3C
6C
CC
CC
CC
CC
76
ENDCHAR
STARTCHAR e
ENCODING 101
BBX 6 7 0 0
BITMAP
78
C4
FC
C0
C0
CC
78
ENDCHAR
STARTCHAR f
ENCODING 102
BBX 6 10 0 0
BITMAP
38
6C
64
60
F0
60
60
60
60
F0
ENDCHAR
STARTCHAR g
ENCODING 103
BBX 7 10 0 -3
BITMAP
76
CC
CC
CC
CC
CC
7C
0C
CC
78
ENDCHAR
STARTCHAR h
ENCODING 104
BBX 7 10 0 0
BITMAP
E0
60
60
7C
76
66
66
66
66
E6
ENDCHAR
STARTCHAR i
ENCODING 105
BBX 4 10 2 0
BITMAP
60
60
00
E0
60
60
60
60
60
F0
ENDCHAR
STARTCHAR j
ENCODING 106
BBX 6 13 1 -3
BITMAP
0C
0C
00
1C
0C
0C
0C
0C
0C
0C
CC
CC
78
ENDCHAR
STARTCHAR k
ENCODING 107
BBX 7 10 0 0
BITMAP
E0
60
60
66
6C
78
78
6C
66
E6
ENDCHAR
STARTCHAR l
ENCODING 108
BBX 4 10 2 0
BITMAP
E0
60
60
60
60
60
60
60
60
F0
ENDCHAR
STARTCHAR m
ENCODING 109
BBX 8 7 0 0
BITMAP
EE
FF
DB
DB
DB
DB
DB
ENDCHAR
STARTCHAR n
ENCODING 110
BBX 7 7 0 0
BITMAP
DC
66
66
66
66
66
66
ENDCHAR
STARTCHAR o
ENCODING 111
BBX 7 7 0 0
BITMAP
7C
C6
C6
C6
C6
C6
7C
ENDCHAR
STARTCHAR p
ENCODING 112
BBX 7 10 0 -3
BITMAP
DC
66
66
66
66
66
7C
60
60
F0
ENDCHAR
STARTCHAR q
ENCODING 113
BBX 7 10 0 -3
BITMAP
76
CC
CC
CC
CC
CC
7C
0C
0C
1E
ENDCHAR
STARTCHAR r
ENCODING 114
BBX 7 7 0 0
BITMAP
DC
76
60
60
60
60
F0
ENDCHAR
STARTCHAR s
ENCODING 115
BBX 7 7 0 0
BITMAP
7C
C6
60
38
0C
C6
7C
ENDCHAR
STARTCHAR t
ENCODING 116
BBX 6 10 1 0
BITMAP
20
60
60
F0
60
60
60
60
6C
38
ENDCHAR
STARTCHAR u
ENCODING 117
BBX 7 7 0 0
BITMAP
CC
CC
CC
CC
CC
CC
76
ENDCHAR
STARTCHAR v
ENCODING 118
BBX 8 7 0 0
BITMAP
C3
C3
C3
C3
66
3C
18
ENDCHAR
STARTCHAR w
ENCODING 119
BBX 8 7 0 0
BITMAP
C3
C3
C3
DB
DB
FF
66
ENDCHAR
STARTCHAR x
ENCODING 120
BBX 8 7 0 0
BITMAP
C3
66
3C
18
3C
66
C3
ENDCHAR
STARTCHAR y
ENCODING 121
BBX 7 10 0 -3
BITMAP
C6
C6
C6
C6
C6
C6
7E
06
0C
F8
ENDCHAR
STARTCHAR z
ENCODING 122
BBX 7 7 0 0
BITMAP
FE
CC
18
30
60
C6
FE
ENDCHAR
STARTCHAR braceleft
ENCODING 123
BBX 6 10 1 0
BITMAP
1C
30
30
30
E0
30
30
30
30
1C
ENDCHAR
STARTCHAR bar
ENCODING 124
BBX 2 10 3 0
BITMAP
C0
C0
C0
C0
C0
C0
C0
C0
C0
C0
ENDCHAR
STARTCHAR braceright
ENCODING 125
BBX 6 10 1 0
BITMAP
E0
30
30
30
1C
30
30
30
30
E0
ENDCHAR
STARTCHAR asciitilde
ENCODING 126
BBX 7 2 0 8
BITMAP
76
DC
ENDCHAR
STARTCHAR uni007F
ENCODING 127
BBX 7 7 0 1
BITMAP
10
38
6C
C6
C6
C6
FE
ENDCHAR
STARTCHAR uni00A0
ENCODING 160
BBX 1 1 0 0
BITMAP
00
ENDCHAR
STARTCHAR exclamdown
ENCODING 161
BBX 4 10 2 0
BITMAP
60
60
00
60
60
60
F0
F0
F0
60
ENDCHAR
STARTCHAR cent
ENCODING 162
BBX 8 11 0 0
BITMAP
18
18
7E
C3
C0
C0
C0
C3
7E
18
18
ENDCHAR
STARTCHAR sterling
ENCODING 163
BBX 7 11 0 0
BITMAP
38
6C
64
60
F0
60
60
60
60
E6
FC
ENDCHAR
STARTCHAR currency
ENCODING 164
BBX 7 8 0 1
BITMAP
C6
7C
C6
C6
C6
C6
7C
C6
ENDCHAR
STARTCHAR yen
ENCODING 165
BBX 6 10 1 0
BITMAP
8C
48
78
30
FC
30
FC
30
30
30
ENDCHAR
STARTCHAR brokenbar
ENCODING 166
BBX 2 10 3 0
BITMAP
C0
C0
C0
C0
00
C0
C0
C0
C0
C0
ENDCHAR
STARTCHAR section
ENCODING 167
BBX 7 12 0 -1
BITMAP
7C
C6
60
38
6C
C6
C6
6C
38
0C
C6
7C
ENDCHAR
STARTCHAR dieresis
ENCODING 168
BBX 7 1 0 10
BITMAP
C6
ENDCHAR
STARTCHAR copyright
ENCODING 169
BBX 7 9 0 1
BITMAP
FE
82
BA
A2
A2
A2
9A
82
7C
ENDCHAR
STARTCHAR ordfeminine
ENCODING 170
BBX 6 6 1 5
BITMAP
78
D8
D8
7C
00
FC
ENDCHAR
STARTCHAR guillemotleft
ENCODING 171
BBX 7 5 0 2
BITMAP
36
6C
D8
6C
36
ENDCHAR
STARTCHAR logicalnot
ENCODING 172
BBX 6 4 1 2
BITMAP
FC
0C
0C
0C
ENDCHAR
STARTCHAR uni00AD
ENCODING 173
BBX 5 1 2 4
BITMAP
F8
ENDCHAR
STARTCHAR registered
ENCODING 174
BBX 7 9 0 1
BITMAP
FE
82
BA
AA
B2
AA
82
82
7C
ENDCHAR
STARTCHAR macron
ENCODING 175
BBX 8 1 0 10
BITMAP
FF
ENDCHAR
STARTCHAR degree
ENCODING 176
BBX 5 4 1 7
BITMAP
70
D8
D8
70
ENDCHAR
STARTCHAR plusminus
ENCODING 177
BBX 4 7 2 0
BITMAP
60
F0
60
00
00
00
F0
ENDCHAR
STARTCHAR uni00B2
ENCODING 178
BBX 5 6 2 5
BITMAP
70
C8
10
20
48
F8
ENDCHAR
STARTCHAR uni00B3
ENCODING 179
BBX 6 6 1 5
BITMAP
F8
0C
78
0C
0C
F8
ENDCHAR
STARTCHAR acute
ENCODING 180
BBX 4 3 2 8
BITMAP
30
60
C0
ENDCHAR
STARTCHAR uni00B5
ENCODING 181
BBX 7 10 0 -3
BITMAP
CC
CC
CC
CC
CC
CC
F6
C0
C0
C0
ENDCHAR
STARTCHAR paragraph
ENCODING 182
BBX 8 10 0 0
BITMAP
7F
DB
DB
DB
7B
1B
1B
1B
1B
1B
ENDCHAR
STARTCHAR periodcentered
ENCODING 183
BBX 2 1 3 4
BITMAP
C0
ENDCHAR
STARTCHAR cedilla
ENCODING 184
BBX 5 3 1 -2
BITMAP
30
18
F0
ENDCHAR
STARTCHAR uni00B9
ENCODING 185
BBX 4 5 2 5
BITMAP
60
E0
60
60
F0
ENDCHAR
STARTCHAR ordmasculine
ENCODING 186
BBX 5 6 1 5
BITMAP
70
D8
D8
70
00
F8
ENDCHAR
STARTCHAR guillemotright
ENCODING 187
BBX 6 5 0 2
BITMAP
D8
6C
34
68
D0
ENDCHAR
STARTCHAR onequarter
ENCODING 188
BBX 7 11 0 -1
BITMAP
C0
C2
C6
CC
18
30
60
C6
9E
1E
06
ENDCHAR
STARTCHAR onehalf
ENCODING 189
BBX 8 12 0 -2
BITMAP
C0
C0
C6
CC
18
30
60
CC
9E
06
0C
1F
ENDCHAR
STARTCHAR threequarters
ENCODING 190
BBX 7 12 0 -1
BITMAP
70
18
32
1E
7C
18
30
60
C6
9E
1E
06
ENDCHAR
STARTCHAR questiondown
ENCODING 191
BBX 7 10 0 0
BITMAP
30
30
00
30
30
60
C0
C0
C6
7C
ENDCHAR
STARTCHAR Agrave
ENCODING 192
BBX 7 12 0 0
BITMAP
0C
06
14
38
6C
C6
C6
FE
C6
C6
C6
C6
ENDCHAR
STARTCHAR Aacute
ENCODING 193
BBX 7 12 0 0
BITMAP
60
C0
90
38
6C
C6
C6
FE
C6
C6
C6
C6
ENDCHAR
STARTCHAR Acircumflex
ENCODING 194
BBX 7 11 0 0
BITMAP
7C
90
38
6C
C6
C6
FE
C6
C6
C6
C6
ENDCHAR
STARTCHAR Atilde
ENCODING 195
BBX 7 11 0 0
BITMAP
76
DC
00
7C
C6
C6
FE
C6
C6
C6
C6
ENDCHAR
STARTCHAR Adieresis
ENCODING 196
BBX 7 11 0 0
BITMAP
C6
00
10
38
4C
C6
C6
FE
C6
C6
C6
ENDCHAR
STARTCHAR Aring
ENCODING 197
BBX 7 11 0 0
BITMAP
38
78
00
38
6C
C6
C6
FE
C6
C6
C6
ENDCHAR
STARTCHAR AE
ENCODING 198
BBX 7 10 0 0
BITMAP
3E
6C
CC
CC
FE
CC
CC
CC
CC
CE
ENDCHAR
STARTCHAR Ccedilla
ENCODING 199
BBX 7 12 0 -2
BITMAP
3C
66
C2
C0
C0
C0
C6
6E
3C
0C
06
7C
ENDCHAR
STARTCHAR Egrave
ENCODING 200
BBX 7 11 0 0
BITMAP
30
18
FE
66
60
68
78
68
60
66
FE
ENDCHAR
STARTCHAR Eacute
ENCODING 201
BBX 7 11 0 0
BITMAP
18
30
FE
66
60
68
78
68
60
66
FE
ENDCHAR
STARTCHAR Ecircumflex
ENCODING 202
BBX 7 11 0 0
BITMAP
38
6C
FE
66
60
68
78
68
60
66
FE
ENDCHAR
STARTCHAR Edieresis
ENCODING 203
BBX 7 11 0 0
BITMAP
C6
00
FE
66
60
68
78
68
60
66
FE
ENDCHAR
STARTCHAR Igrave
ENCODING 204
BBX 5 11 1 0
BITMAP
C0
60
78
30
30
30
30
30
30
30
78
ENDCHAR
STARTCHAR Iacute
ENCODING 205
BBX 4 11 2 0
BITMAP
30
60
F0
60
60
60
60
60
60
60
F0
ENDCHAR
STARTCHAR Icircumflex
ENCODING 206
BBX 6 11 1 0
BITMAP
78
CC
78
30
30
30
30
30
30
30
78
ENDCHAR
STARTCHAR Idieresis
ENCODING 207
BBX 6 11 1 0
BITMAP
CC
00
78
30
30
30
30
30
30
30
78
ENDCHAR
STARTCHAR Eth
ENCODING 208
BBX 7 10 0 0
BITMAP
F8
6C
66
66
F6
66
66
66
6C
F8
ENDCHAR
STARTCHAR Ntilde
ENCODING 209
BBX 7 11 0 0
BITMAP
76
DC
00
C6
E6
F6
FE
CE
C6
C6
C6
ENDCHAR
STARTCHAR Ograve
ENCODING 210
BBX 7 11 0 0
BITMAP
60
30
7C
C6
C6
C6
C6
C6
C6
C6
7C
ENDCHAR
STARTCHAR Oacute
ENCODING 211
BBX 7 11 0 0
BITMAP
18
30
7C
C6
C6
C6
C6
C6
C6
C6
7C
ENDCHAR
STARTCHAR Ocircumflex
ENCODING 212
BBX 7 11 0 0
BITMAP
38
6C
7C
C6
C6
C6
C6
C6
C6
C6
7C
ENDCHAR
STARTCHAR Otilde
ENCODING 213
BBX 7 11 0 0
BITMAP
76
DC
7C
C6
C6
C6
C6
C6
C6
C6
7C
ENDCHAR
STARTCHAR Odieresis
ENCODING 214
BBX 7 11 0 0
BITMAP
C6
00
7C
C6
C6
C6
C6
C6
C6
C6
7C
ENDCHAR
STARTCHAR multiply
ENCODING 215
BBX 6 5 1 2
BITMAP
CC
78
30
78
CC
ENDCHAR
STARTCHAR Oslash
ENCODING 216
BBX 7 12 0 -1
BITMAP
04
7C
CE
CE
D6
D6
D6
D6
E6
E6
7C
40
ENDCHAR
STARTCHAR Ugrave
ENCODING 217
BBX 7 11 0 0
BITMAP
30
18
00
C6
C6
C6
C6
C6
C6
C6
7C
ENDCHAR
STARTCHAR Uacute
ENCODING 218
BBX 7 11 0 0
BITMAP
18
30
00
C6
C6
C6
C6
C6
C6
C6
7C
ENDCHAR
STARTCHAR Ucircumflex
ENCODING 219
BBX 7 11 0 0
BITMAP
38
6C
00
C6
C6
C6
C6
C6
C6
C6
7C
ENDCHAR
STARTCHAR Udieresis
ENCODING 220
BBX 7 11 0 0
BITMAP
C6
00
00
C6
C6
C6
C6
C6
C6
C6
7C
ENDCHAR
STARTCHAR Yacute
ENCODING 221
BBX 6 11 1 0
BITMAP
18
30
00
CC
CC
CC
78
30
30
30
78
ENDCHAR
STARTCHAR Thorn
ENCODING 222
BBX 7 10 0 0
BITMAP
F0
60
7C
66
66
66
66
7C
60
F0
ENDCHAR
STARTCHAR germandbls
ENCODING 223
BBX 7 10 0 0
BITMAP
78
CC
CC
CC
D8
CC
C6
C6
C6
CC
ENDCHAR
STARTCHAR agrave
ENCODING 224
BBX 7 11 0 0
BITMAP
60
30
18
00
78
0C
7C
CC
CC
CC
76
ENDCHAR
STARTCHAR aacute
ENCODING 225
BBX 7 11 0 0
BITMAP
18
30
40
00
78
0C
7C
CC
CC
CC
76
ENDCHAR
STARTCHAR acircumflex
ENCODING 226
BBX 7 11 0 0
BITMAP
10
38
4C
00
78
0C
7C
CC
CC
CC
76
ENDCHAR
STARTCHAR atilde
ENCODING 227
BBX 7 10 0 0
BITMAP
74
98
00
78
0C
7C
CC
CC
CC
76
ENDCHAR
STARTCHAR adieresis
ENCODING 228
BBX 7 10 0 0
BITMAP
CC
00
00
78
0C
7C
CC
CC
CC
76
ENDCHAR
STARTCHAR aring
ENCODING 229
BBX 7 11 0 0
BITMAP
38
6C
38
00
78
0C
7C
CC
CC
CC
76
ENDCHAR
STARTCHAR ae
ENCODING 230
BBX 8 7 0 0
BITMAP
6E
3B
1B
7E
D8
DC
77
ENDCHAR
STARTCHAR ccedilla
ENCODING 231
BBX 7 9 0 -2
BITMAP
7C
C6
C0
C0
C0
C6
7C
18
70
ENDCHAR
STARTCHAR egrave
ENCODING 232
BBX 6 11 0 0
BITMAP
60
30
18
00
78
C4
FC
C0
C0
CC
78
ENDCHAR
STARTCHAR eacute
ENCODING 233
BBX 6 11 0 0
BITMAP
18
30
20
00
78
C4
FC
C0
C0
CC
78
ENDCHAR
STARTCHAR ecircumflex
ENCODING 234
BBX 6 11 0 0
BITMAP
10
38
4C
00
78
C4
FC
C0
C0
CC
78
ENDCHAR
STARTCHAR edieresis
ENCODING 235
BBX 6 9 0 0
BITMAP
6C
00
7C
C4
FC
C0
C0
C4
7C
ENDCHAR
STARTCHAR igrave
ENCODING 236
BBX 5 11 1 0
BITMAP
C0
60
30
00
70
30
30
30
30
30
78
ENDCHAR
STARTCHAR iacute
ENCODING 237
BBX 4 11 2 0
BITMAP
30
60
C0
00
E0
60
60
60
60
60
F0
ENDCHAR
STARTCHAR icircumflex
ENCODING 238
BBX 6 11 1 0
BITMAP
30
78
CC
00
70
30
30
30
30
30
78
ENDCHAR
STARTCHAR idieresis
ENCODING 239
BBX 5 9 1 0
BITMAP
D8
00
70
30
30
30
30
30
78
ENDCHAR
STARTCHAR eth
ENCODING 240
BBX 6 10 1 0
BITMAP
68
30
58
0C
7C
CC
CC
CC
CC
78
ENDCHAR
STARTCHAR ntilde
ENCODING 241
BBX 7 10 0 0
BITMAP
FC
98
00
DC
66
66
66
66
66
66
ENDCHAR
STARTCHAR ograve
ENCODING 242
BBX 7 11 0 0
BITMAP
60
30
18
00
7C
C6
C6
C6
C6
C6
7C
ENDCHAR
STARTCHAR oacute
ENCODING 243
BBX 7 11 0 0
BITMAP
0C
18
30
00
7C
C6
C6
C6
C6
C6
7C
ENDCHAR
STARTCHAR ocircumflex
ENCODING 244
BBX 7 11 0 0
BITMAP
10
38
4C
00
7C
C6
C6
C6
C6
C6
7C
ENDCHAR
STARTCHAR otilde
ENCODING 245
BBX 7 10 0 0
BITMAP
76
9C
00
7C
C6
C6
C6
C6
C6
7C
ENDCHAR
STARTCHAR odieresis
ENCODING 246
BBX 7 10 0 0
BITMAP
C6
00
00
7C
C6
C6
C6
C6
C6
7C
ENDCHAR
STARTCHAR divide
ENCODING 247
BBX 6 5 1 2
BITMAP
30
00
FC
00
30
ENDCHAR
STARTCHAR oslash
ENCODING 248
BBX 7 7 0 0
BITMAP
7C
CE
DE
F6
E6
C6
7C
ENDCHAR
STARTCHAR ugrave
ENCODING 249
BBX 7 11 0 0
BITMAP
60
30
18
00
CC
CC
CC
CC
CC
CC
76
ENDCHAR
STARTCHAR uacute
ENCODING 250
BBX 7 11 0 0
BITMAP
18
30
40
00
CC
CC
CC
CC
CC
CC
76
ENDCHAR
STARTCHAR ucircumflex
ENCODING 251
BBX 7 11 0 0
BITMAP
30
78
8C
00
CC
CC
CC
CC
CC
CC
76
ENDCHAR
STARTCHAR udieresis
ENCODING 252
BBX 7 9 0 0
BITMAP
CC
00
CC
CC
CC
CC
CC
CC
76
ENDCHAR
STARTCHAR yacute
ENCODING 253
BBX 7 14 0 -3
BITMAP
0C
18
30
00
C6
C6
C6
C6
C6
C6
7E
06
0C
78
ENDCHAR
STARTCHAR thorn
ENCODING 254
BBX 7 12 0 -2
BITMAP
F0
60
60
7C
66
66
66
66
7C
60
60
F0
ENDCHAR
STARTCHAR ydieresis
ENCODING 255
BBX 7 13 0 -3
BITMAP
C6
00
00
C6
C6
C6
C6
C6
C6
7E
06
0C
78
ENDCHAR
STARTCHAR OE
ENCODING 338
BBX 7 10 0 0
BITMAP
3E
6C
CC
CC
CE
CC
CC
CC
6C
3E
ENDCHAR
STARTCHAR oe
ENCODING 339
BBX 8 7 0 0
BITMAP
6E
DB
DB
DE
D8
DC
77
ENDCHAR
STARTCHAR Scaron
ENCODING 352
BBX 7 12 0 0
BITMAP
C6
7C
00
7C
C6
C0
60
38
0C
06
C6
7C
ENDCHAR
STARTCHAR scaron
ENCODING 353
BBX 7 10 0 0
BITMAP
78
30
00
7C
C6
60
38
0C
C6
7C
ENDCHAR
STARTCHAR Ydieresis
ENCODING 376
BBX 8 11 0 0
BITMAP
66
00
C3
C3
66
3C
18
18
18
18
3C
ENDCHAR
STARTCHAR Zcaron
ENCODING 381
BBX 8 12 0 0
BITMAP
C6
7C
00
FF
83
06
0C
18
30
60
C3
FF
ENDCHAR
STARTCHAR zcaron
ENCODING 382
BBX 7 10 0 0
BITMAP
6C
38
00
FE
CC
18
30
60
C6
FE
ENDCHAR
STARTCHAR florin
ENCODING 402
BBX 8 13 0 -2
BITMAP
0E
1B
18
18
18
3C
18
18
18
18
18
D8
70
ENDCHAR
STARTCHAR circumflex
ENCODING 710
BBX 5 3 1 8
BITMAP
20
70
D8
ENDCHAR
STARTCHAR tilde
ENCODING 732
BBX 7 2 0 4
BITMAP
76
DC
ENDCHAR
STARTCHAR Alphatonos
ENCODING 902
BBX 7 12 0 0
BITMAP
60
C0
90
38
6C
C6
C6
FE
C6
C6
C6
C6
ENDCHAR
STARTCHAR Epsilontonos
ENCODING 904
BBX 7 12 0 0
BITMAP
60
C0
BE
32
30
30
3E
30
30
30
32
3E
ENDCHAR
STARTCHAR Etatonos
ENCODING 905
BBX 7 12 0 0
BITMAP
18
18
D6
C6
C6
C6
FE
C6
C6
C6
C6
C6
ENDCHAR
STARTCHAR Iotatonos
ENCODING 906
BBX 6 12 0 0
BITMAP
60
C0
BC
18
18
18
18
18
18
18
18
3C
ENDCHAR
STARTCHAR Omicrontonos
ENCODING 908
BBX 7 12 0 0
BITMAP
60
C0
BC
66
66
66
66
66
66
66
66
3C
ENDCHAR
STARTCHAR Upsilontonos
ENCODING 910
BBX 6 12 1 0
BITMAP
18
30
EC
CC
CC
CC
78
30
30
30
30
78
ENDCHAR
STARTCHAR Omegatonos
ENCODING 911
BBX 7 12 0 0
BITMAP
60
C0
BC
66
66
66
66
66
3C
00
00
7E
ENDCHAR
STARTCHAR Alpha
ENCODING 913
BBX 7 10 0 0
BITMAP
10
38
6C
C6
C6
FE
C6
C6
C6
C6
ENDCHAR
STARTCHAR Beta
ENCODING 914
BBX 7 10 0 0
BITMAP
FC
66
66
66
7C
66
66
66
66
FC
ENDCHAR
STARTCHAR Gamma
ENCODING 915
BBX 7 10 0 0
BITMAP
FE
C6
C6
C0
C0
C0
C0
C0
C0
C0
ENDCHAR
STARTCHAR Delta
ENCODING 916
BBX 7 10 0 0
BITMAP
10
38
6C
C6
C6
C6
C6
C6
C6
FE
ENDCHAR
STARTCHAR Epsilon
ENCODING 917
BBX 7 10 0 0
BITMAP
FE
66
62
68
78
68
60
60
66
FE
ENDCHAR
STARTCHAR Zeta
ENCODING 918
BBX 7 10 0 0
BITMAP
FE
C6
86
0C
18
30
60
C0
C6
FE
ENDCHAR
STARTCHAR Eta
ENCODING 919
BBX 7 10 0 0
BITMAP
C6
C6
C6
C6
FE
C6
C6
C6
C6
C6
ENDCHAR
STARTCHAR Theta
ENCODING 920
BBX 7 9 0 0
BITMAP
38
6C
C6
C6
FE
C6
C6
6C
38
ENDCHAR
STARTCHAR Iota
ENCODING 921
BBX 4 10 2 0
BITMAP
F0
60
60
60
60
60
60
60
60
F0
ENDCHAR
STARTCHAR Kappa
ENCODING 922
BBX 7 10 0 0
BITMAP
E6
66
66
6C
78
78
6C
66
66
E6
ENDCHAR
STARTCHAR Lambda
ENCODING 923
BBX 7 10 0 0
BITMAP
10
38
6C
C6
C6
C6
C6
C6
C6
C6
ENDCHAR
STARTCHAR Mu
ENCODING 924
BBX 7 10 0 0
BITMAP
C6
EE
FE
FE
D6
C6
C6
C6
C6
C6
ENDCHAR
STARTCHAR Nu
ENCODING 925
BBX 7 10 0 0
BITMAP
C6
E6
F6
FE
DE
CE
C6
C6
C6
C6
ENDCHAR
STARTCHAR Xi
ENCODING 926
BBX 7 10 0 0
BITMAP
FE
82
00
00
7C
00
00
00
82
FE
ENDCHAR
STARTCHAR Omicron
ENCODING 927
BBX 7 10 0 0
BITMAP
7C
C6
C6
C6
C6
C6
C6
C6
C6
7C
ENDCHAR
STARTCHAR Pi
ENCODING 928
BBX 7 10 0 0
BITMAP
FE
C6
C6
C6
C6
C6
C6
C6
C6
C6
ENDCHAR
STARTCHAR Rho
ENCODING 929
BBX 7 10 0 0
BITMAP
FC
66
66
66
7C
60
60
60
60
F0
ENDCHAR
STARTCHAR Sigma
ENCODING 931
BBX 6 10 0 0
BITMAP
FC
C4
64
30
18
18
30
60
C4
FC
ENDCHAR
STARTCHAR Tau
ENCODING 932
BBX 6 10 1 0
BITMAP
FC
FC
B4
30
30
30
30
30
30
78
ENDCHAR
STARTCHAR Upsilon
ENCODING 933
BBX 6 10 1 0
BITMAP
CC
CC
CC
CC
78
30
30
30
30
78
ENDCHAR
STARTCHAR Phi
ENCODING 934
BBX 7 10 0 0
BITMAP
7C
D6
D6
D6
D6
D6
7C
10
10
38
ENDCHAR
STARTCHAR Chi
ENCODING 935
BBX 7 10 0 0
BITMAP
C6
C6
6C
7C
38
38
7C
6C
C6
C6
ENDCHAR
STARTCHAR Psi
ENCODING 936
BBX 7 10 0 0
BITMAP
D6
D6
D6
D6
D6
D6
7C
10
10
38
ENDCHAR
STARTCHAR Omega
ENCODING 937
BBX 7 10 0 0
BITMAP
7C
C6
C6
C6
C6
C6
EE
6C
6C
EE
ENDCHAR
STARTCHAR alphatonos
ENCODING 940
BBX 7 11 0 0
BITMAP
0C
18
30
00
76
CC
CC
CC
CC
CC
76
ENDCHAR
STARTCHAR epsilontonos
ENCODING 941
BBX 7 11 0 0
BITMAP
0C
18
10
00
7E
C0
C0
7C
C0
C0
7E
ENDCHAR
STARTCHAR etatonos
ENCODING 942
BBX 7 11 0 0
BITMAP
06
0C
18
00
DC
66
66
66
66
66
66
ENDCHAR
STARTCHAR iotatonos
ENCODING 943
BBX 4 11 3 0
BITMAP
20
40
80
00
C0
C0
C0
C0
C0
C0
70
ENDCHAR
STARTCHAR alpha
ENCODING 945
BBX 7 7 0 0
BITMAP
76
DC
D8
D8
D8
DC
76
ENDCHAR
STARTCHAR beta
ENCODING 946
BBX 6 13 0 -3
BITMAP
78
CC
CC
CC
F8
CC
CC
CC
CC
F8
C0
C0
C0
ENDCHAR
STARTCHAR gamma
ENCODING 947
BBX 7 10 0 -3
BITMAP
C6
C6
C6
C6
6C
38
6C
C6
C6
7C
ENDCHAR
STARTCHAR delta
ENCODING 948
BBX 6 10 1 0
BITMAP
3C
60
30
18
7C
CC
CC
CC
CC
78
ENDCHAR
STARTCHAR epsilon
ENCODING 949
BBX 7 7 0 0
BITMAP
7E
C0
C0
7C
C0
C0
7E
ENDCHAR
STARTCHAR zeta
ENCODING 950
BBX 7 13 0 -3
BITMAP
FE
0C
18
30
60
C0
C0
C0
C0
7C
06
06
3C
ENDCHAR
STARTCHAR eta
ENCODING 951
BBX 7 7 0 0
BITMAP
DC
66
66
66
66
66
66
ENDCHAR
STARTCHAR theta
ENCODING 952
BBX 6 10 0 0
BITMAP
78
CC
0C
0C
7C
CC
CC
CC
CC
78
ENDCHAR
STARTCHAR iota
ENCODING 953
BBX 4 7 3 0
BITMAP
C0
C0
C0
C0
C0
C0
70
ENDCHAR
STARTCHAR kappa
ENCODING 954
BBX 7 7 0 0
BITMAP
E6
6C
78
78
6C
66
E6
ENDCHAR
STARTCHAR lambda
ENCODING 955
BBX 7 10 0 0
BITMAP
7C
C6
06
06
3E
66
C6
C6
C6
C6
ENDCHAR
STARTCHAR mu
ENCODING 956
BBX 7 10 0 -3
BITMAP
CC
CC
CC
CC
CC
CC
F6
C0
C0
C0
ENDCHAR
STARTCHAR nu
ENCODING 957
BBX 6 7 1 0
BITMAP
CC
CC
CC
CC
CC
78
30
ENDCHAR
STARTCHAR xi
ENCODING 958
BBX 7 13 0 -3
BITMAP
FE
0C
18
30
60
60
3C
60
C0
7C
06
06
3C
ENDCHAR
STARTCHAR omicron
ENCODING 959
BBX 7 7 0 0
BITMAP
7C
C6
C6
C6
C6
C6
7C
ENDCHAR
STARTCHAR pi
ENCODING 960
BBX 7 8 0 0
BITMAP
FE
6C
6C
6C
6C
6C
6C
6C
ENDCHAR
STARTCHAR rho
ENCODING 961
BBX 6 10 1 -3
BITMAP
78
CC
CC
CC
CC
CC
F8
C0
C0
C0
ENDCHAR
STARTCHAR sigma1
ENCODING 962
BBX 7 7 0 0
BITMAP
7C
C6
C0
7C
06
C6
7C
ENDCHAR
STARTCHAR sigma
ENCODING 963
BBX 7 7 0 0
BITMAP
7E
D8
D8
D8
D8
D8
70
ENDCHAR
STARTCHAR tau
ENCODING 964
BBX 6 8 1 0
BITMAP
4C
B8
30
30
30
30
30
30
ENDCHAR
STARTCHAR upsilon
ENCODING 965
BBX 7 7 0 0
BITMAP
C6
C6
C6
C6
C6
C6
7C
ENDCHAR
STARTCHAR phi
ENCODING 966
BBX 7 10 0 -3
BITMAP
7C
C0
DC
D6
D6
D6
7C
10
10
10
ENDCHAR
STARTCHAR chi
ENCODING 967
BBX 7 7 0 0
BITMAP
C6
6C
38
38
38
6C
C6
ENDCHAR
STARTCHAR psi
ENCODING 968
BBX 7 10 0 -3
BITMAP
D6
D6
D6
D6
D6
D6
7C
10
10
10
ENDCHAR
STARTCHAR omega
ENCODING 969
BBX 7 7 0 0
BITMAP
6C
C6
D6
D6
D6
D6
6C
ENDCHAR
STARTCHAR iotadieresis
ENCODING 970
BBX 6 10 1 0
BITMAP
CC
CC
00
30
30
30
30
30
30
1C
ENDCHAR
STARTCHAR upsilondieresis
ENCODING 971
BBX 7 10 0 0
BITMAP
C6
C6
00
C6
C6
C6
C6
C6
C6
7C
ENDCHAR
STARTCHAR omicrontonos
ENCODING 972
BBX 7 11 0 0
BITMAP
06
0C
18
00
7C
C6
C6
C6
C6
C6
7C
ENDCHAR
STARTCHAR upsilontonos
ENCODING 973
BBX 7 11 0 0
BITMAP
06
0C
18
00
C6
C6
C6
C6
C6
C6
7C
ENDCHAR
STARTCHAR omegatonos
ENCODING 974
BBX 7 11 0 0
BITMAP
06
0C
18
00
6C
C6
D6
D6
D6
D6
6C
ENDCHAR
STARTCHAR phi1
ENCODING 981
BBX 6 9 1 0
BITMAP
FC
30
78
CC
CC
CC
78
30
FC
ENDCHAR
STARTCHAR afii10017
ENCODING 1040
BBX 7 10 0 0
BITMAP
1E
36
66
C6
C6
FE
C6
C6
C6
C6
ENDCHAR
STARTCHAR afii10018
ENCODING 1041
BBX 7 10 0 0
BITMAP
FE
62
62
60
7C
66
66
66
66
FC
ENDCHAR
STARTCHAR afii10019
ENCODING 1042
BBX 7 10 0 0
BITMAP
FC
66
66
66
7C
66
66
66
66
FC
ENDCHAR
STARTCHAR afii10020
ENCODING 1043
BBX 7 10 0 0
BITMAP
FE
62
62
60
60
60
60
60
60
F0
ENDCHAR
STARTCHAR afii10021
ENCODING 1044
BBX 8 12 0 -2
BITMAP
1E
36
66
66
66
66
66
66
66
FF
C3
81
ENDCHAR
STARTCHAR afii10022
ENCODING 1045
BBX 7 10 0 0
BITMAP
FE
66
62
68
78
68
60
60
66
FE
ENDCHAR
STARTCHAR afii10024
ENCODING 1046
BBX 7 10 0 0
BITMAP
D6
D6
54
54
7C
7C
54
D6
D6
D6
ENDCHAR
STARTCHAR afii10025
ENCODING 1047
BBX 7 10 0 0
BITMAP
7C
C6
06
06
3C
06
06
06
C6
7C
ENDCHAR
STARTCHAR afii10026
ENCODING 1048
BBX 7 10 0 0
BITMAP
C6
C6
CE
CE
D6
E6
E6
C6
C6
C6
ENDCHAR
STARTCHAR afii10027
ENCODING 1049
BBX 7 12 0 0
BITMAP
38
38
C6
C6
CE
CE
D6
E6
E6
C6
C6
C6
ENDCHAR
STARTCHAR afii10028
ENCODING 1050
BBX 7 10 0 0
BITMAP
E6
66
6C
6C
78
78
6C
6C
66
E6
ENDCHAR
STARTCHAR afii10029
ENCODING 1051
BBX 7 10 0 0
BITMAP
1E
36
66
C6
C6
C6
C6
C6
C6
C6
ENDCHAR
STARTCHAR afii10030
ENCODING 1052
BBX 7 10 0 0
BITMAP
C6
EE
FE
FE
D6
C6
C6
C6
C6
C6
ENDCHAR
STARTCHAR afii10031
ENCODING 1053
BBX 7 10 0 0
BITMAP
C6
C6
C6
C6
FE
C6
C6
C6
C6
C6
ENDCHAR
STARTCHAR afii10032
ENCODING 1054
BBX 7 10 0 0
BITMAP
7C
C6
C6
C6
C6
C6
C6
C6
C6
7C
ENDCHAR
STARTCHAR afii10033
ENCODING 1055
BBX 7 10 0 0
BITMAP
FE
C6
C6
C6
C6
C6
C6
C6
C6
C6
ENDCHAR
STARTCHAR afii10034
ENCODING 1056
BBX 7 10 0 0
BITMAP
FC
66
66
66
7C
60
60
60
60
F0
ENDCHAR
STARTCHAR afii10035
ENCODING 1057
BBX 7 10 0 0
BITMAP
3C
66
C2
C0
C0
C0
C0
C2
66
3C
ENDCHAR
STARTCHAR afii10036
ENCODING 1058
BBX 6 10 1 0
BITMAP
FC
B4
30
30
30
30
30
30
30
78
ENDCHAR
STARTCHAR afii10037
ENCODING 1059
BBX 7 10 0 0
BITMAP
C6
C6
C6
C6
C6
7E
06
06
C6
7C
ENDCHAR
STARTCHAR afii10038
ENCODING 1060
BBX 8 11 0 0
BITMAP
3C
18
7E
DB
DB
DB
DB
DB
7E
18
3C
ENDCHAR
STARTCHAR afii10039
ENCODING 1061
BBX 7 10 0 0
BITMAP
C6
C6
6C
7C
38
38
7C
6C
C6
C6
ENDCHAR
STARTCHAR afii10040
ENCODING 1062
BBX 7 11 0 -1
BITMAP
CC
CC
CC
CC
CC
CC
CC
CC
CC
FE
06
ENDCHAR
STARTCHAR afii10041
ENCODING 1063
BBX 7 10 0 0
BITMAP
C6
C6
C6
C6
C6
7E
06
06
06
06
ENDCHAR
STARTCHAR afii10042
ENCODING 1064
BBX 8 10 0 0
BITMAP
DB
DB
DB
DB
DB
DB
DB
DB
DB
FF
ENDCHAR
STARTCHAR afii10043
ENCODING 1065
BBX 8 11 0 -1
BITMAP
DB
DB
DB
DB
DB
DB
DB
DB
DB
FF
03
ENDCHAR
STARTCHAR afii10044
ENCODING 1066
BBX 7 10 0 0
BITMAP
F8
B0
30
30
3C
36
36
36
36
7C
ENDCHAR
STARTCHAR afii10045
ENCODING 1067
BBX 8 10 0 0
BITMAP
C3
C3
C3
C3
F3
DB
DB
DB
DB
F3
ENDCHAR
STARTCHAR afii10046
ENCODING 1068
BBX 7 10 0 0
BITMAP
F0
60
60
60
7C
66
66
66
66
FC
ENDCHAR
STARTCHAR afii10047
ENCODING 1069
BBX 7 10 0 0
BITMAP
7C
C6
06
26
3E
26
06
06
C6
7C
ENDCHAR
STARTCHAR afii10048
ENCODING 1070
BBX 8 10 0 0
BITMAP
CE
DB
DB
DB
FB
DB
DB
DB
DB
CE
ENDCHAR
STARTCHAR afii10049
ENCODING 1071
BBX 8 10 0 0
BITMAP
3F
66
66
66
3E
3E
66
66
66
E7
ENDCHAR
STARTCHAR afii10065
ENCODING 1072
BBX 7 7 0 0
BITMAP
78
0C
7C
CC
CC
CC
76
ENDCHAR
STARTCHAR afii10066
ENCODING 1073
BBX 6 11 1 0
BITMAP
04
0C
78
C0
C0
F8
CC
CC
CC
CC
78
ENDCHAR
STARTCHAR afii10067
ENCODING 1074
BBX 7 7 0 0
BITMAP
FC
66
66
7C
66
66
FC
ENDCHAR
STARTCHAR afii10068
ENCODING 1075
BBX 6 7 1 0
BITMAP
FC
64
60
60
60
60
F0
ENDCHAR
STARTCHAR afii10069
ENCODING 1076
BBX 8 8 0 -1
BITMAP
1E
36
36
66
66
66
FF
C3
ENDCHAR
STARTCHAR afii10070
ENCODING 1077
BBX 6 7 0 0
BITMAP
78
C4
FC
C0
C0
CC
78
ENDCHAR
STARTCHAR afii10072
ENCODING 1078
BBX 7 7 0 0
BITMAP
D6
D6
54
7C
54
D6
D6
ENDCHAR
STARTCHAR afii10073
ENCODING 1079
BBX 6 7 1 0
BITMAP
78
CC
0C
18
0C
CC
78
ENDCHAR
STARTCHAR afii10074
ENCODING 1080
BBX 7 7 0 0
BITMAP
C6
C6
CE
D6
E6
C6
C6
ENDCHAR
STARTCHAR afii10075
ENCODING 1081
BBX 7 9 0 0
BITMAP
38
38
C6
C6
CE
D6
E6
C6
C6
ENDCHAR
STARTCHAR afii10076
ENCODING 1082
BBX 7 7 0 0
BITMAP
E6
6C
78
78
6C
66
E6
ENDCHAR
STARTCHAR afii10077
ENCODING 1083
BBX 6 7 1 0
BITMAP
3C
6C
CC
CC
CC
CC
CC
ENDCHAR
STARTCHAR afii10078
ENCODING 1084
BBX 7 7 0 0
BITMAP
C6
EE
FE
FE
D6
D6
C6
ENDCHAR
STARTCHAR afii10079
ENCODING 1085
BBX 7 7 0 0
BITMAP
C6
C6
C6
FE
C6
C6
C6
ENDCHAR
STARTCHAR afii10080
ENCODING 1086
BBX 7 7 0 0
BITMAP
7C
C6
C6
C6
C6
C6
7C
ENDCHAR
STARTCHAR afii10081
ENCODING 1087
BBX 7 7 0 0
BITMAP
FE
C6
C6
C6
C6
C6
C6
ENDCHAR
STARTCHAR afii10082
ENCODING 1088
BBX 7 10 0 -3
BITMAP
DC
66
66
66
66
66
7C
60
60
F0
ENDCHAR
STARTCHAR afii10083
ENCODING 1089
BBX 7 7 0 0
BITMAP
7C
C6
C0
C0
C0
C6
7C
ENDCHAR
STARTCHAR afii10084
ENCODING 1090
BBX 6 7 1 0
BITMAP
FC
B4
30
30
30
30
78
ENDCHAR
STARTCHAR afii10085
ENCODING 1091
BBX 7 10 0 -3
BITMAP
C6
C6
C6
C6
C6
7E
06
06
C6
7C
ENDCHAR
STARTCHAR afii10086
ENCODING 1092
BBX 8 11 0 -3
BITMAP
3C
18
7E
DB
DB
DB
DB
7E
18
18
3C
ENDCHAR
STARTCHAR afii10087
ENCODING 1093
BBX 7 7 0 0
BITMAP
C6
6C
38
38
38
6C
C6
ENDCHAR
STARTCHAR afii10088
ENCODING 1094
BBX 7 8 0 -1
BITMAP
CC
CC
CC
CC
CC
CC
FE
06
ENDCHAR
STARTCHAR afii10089
ENCODING 1095
BBX 7 7 0 0
BITMAP
C6
C6
C6
C6
7E
06
06
ENDCHAR
STARTCHAR afii10090
ENCODING 1096
BBX 7 7 0 0
BITMAP
D6
D6
D6
D6
D6
D6
FE
ENDCHAR
STARTCHAR afii10091
ENCODING 1097
BBX 8 8 0 -1
BITMAP
D6
D6
D6
D6
D6
D6
FE
03
ENDCHAR
STARTCHAR afii10092
ENCODING 1098
BBX 8 7 0 0
BITMAP
F8
B0
30
3E
33
33
7E
ENDCHAR
STARTCHAR afii10093
ENCODING 1099
BBX 7 7 0 0
BITMAP
C6
C6
C6
F6
DE
DE
F6
ENDCHAR
STARTCHAR afii10094
ENCODING 1100
BBX 7 7 0 0
BITMAP
F0
60
60
7C
66
66
FC
ENDCHAR
STARTCHAR afii10095
ENCODING 1101
BBX 6 7 1 0
BITMAP
78
CC
0C
1C
0C
CC
78
ENDCHAR
STARTCHAR afii10096
ENCODING 1102
BBX 8 7 0 0
BITMAP
CE
DB
DB
FB
DB
DB
CE
ENDCHAR
STARTCHAR afii10097
ENCODING 1103
BBX 7 7 0 0
BITMAP
7E
CC
CC
FC
6C
CC
CE
ENDCHAR
STARTCHAR uni2007
ENCODING 8199
BBX 1 1 0 0
BITMAP
00
ENDCHAR
STARTCHAR endash
ENCODING 8211
BBX 6 1 1 4
BITMAP
FC
ENDCHAR
STARTCHAR emdash
ENCODING 8212
BBX 8 1 0 4
BITMAP
FF
ENDCHAR
STARTCHAR quoteleft
ENCODING 8216
BBX 4 3 2 8
BITMAP
C0
60
30
ENDCHAR
STARTCHAR quoteright
ENCODING 8217
BBX 4 3 2 8
BITMAP
30
60
C0
ENDCHAR
STARTCHAR quotesinglbase
ENCODING 8218
BBX 3 2 2 0
BITMAP
E0
C0
ENDCHAR
STARTCHAR quotedblleft
ENCODING 8220
BBX 7 3 0 8
BITMAP
C8
64
32
ENDCHAR
STARTCHAR quotedblright
ENCODING 8221
BBX 8 3 0 8
BITMAP
33
66
CC
ENDCHAR
STARTCHAR quotedblbase
ENCODING 8222
BBX 7 2 1 0
BITMAP
EE
CC
ENDCHAR
STARTCHAR dagger
ENCODING 8224
BBX 6 10 1 0
BITMAP
30
30
30
30
FC
30
30
30
30
30
ENDCHAR
STARTCHAR daggerdbl
ENCODING 8225
BBX 6 10 1 0
BITMAP
30
30
FC
30
30
30
30
30
FC
30
ENDCHAR
STARTCHAR bullet
ENCODING 8226
BBX 4 4 2 2
BITMAP
60
F0
F0
60
ENDCHAR
STARTCHAR ellipsis
ENCODING 8230
BBX 8 2 0 0
BITMAP
DB
DB
ENDCHAR
STARTCHAR perthousand
ENCODING 8240
BBX 8 8 0 0
BITMAP
C6
CC
18
30
60
C0
9B
1B
ENDCHAR
STARTCHAR guilsinglleft
ENCODING 8249
BBX 4 5 1 2
BITMAP
30
60
C0
60
30
ENDCHAR
STARTCHAR guilsinglright
ENCODING 8250
BBX 4 5 1 2
BITMAP
C0
60
30
60
C0
ENDCHAR
STARTCHAR exclamdbl
ENCODING 8252
BBX 6 10 1 0
BITMAP
CC
CC
CC
CC
CC
CC
CC
00
CC
CC
ENDCHAR
STARTCHAR uni203F
ENCODING 8255
BBX 7 2 0 0
BITMAP
82
FE
ENDCHAR
STARTCHAR uni207F
ENCODING 8319
BBX 6 5 0 6
BITMAP
D8
6C
6C
6C
6C
ENDCHAR
STARTCHAR peseta
ENCODING 8359
BBX 8 11 0 0
BITMAP
FC
66
66
7C
62
66
6F
66
66
66
F3
ENDCHAR
STARTCHAR Euro
ENCODING 8364
BBX 8 9 0 0
BITMAP
1E
33
60
F0
60
F0
60
33
1E
ENDCHAR
STARTCHAR trademark
ENCODING 8482
BBX 8 6 0 5
BITMAP
E0
40
51
5B
15
11
ENDCHAR
STARTCHAR uni2126
ENCODING 8486
BBX 7 10 0 0
BITMAP
38
6C
C6
C6
C6
6C
6C
6C
6C
EE
ENDCHAR
STARTCHAR arrowleft
ENCODING 8592
BBX 7 5 0 2
BITMAP
30
60
FE
60
30
ENDCHAR
STARTCHAR arrowup
ENCODING 8593
BBX 4 10 2 0
BITMAP
40
60
F0
60
60
60
60
60
60
60
ENDCHAR
STARTCHAR arrowright
ENCODING 8594
BBX 7 5 0 2
BITMAP
18
0C
FE
0C
18
ENDCHAR
STARTCHAR arrowdown
ENCODING 8595
BBX 4 10 2 0
BITMAP
60
60
60
60
60
60
60
F0
60
60
ENDCHAR
STARTCHAR arrowboth
ENCODING 8596
BBX 7 4 0 3
BITMAP
28
6C
FE
28
ENDCHAR
STARTCHAR arrowupdn
ENCODING 8597
BBX 4 8 2 2
BITMAP
60
60
F0
60
60
60
F0
60
ENDCHAR
STARTCHAR arrowupdnbse
ENCODING 8616
BBX 4 10 2 0
BITMAP
60
60
F0
60
60
60
F0
60
60
F0
ENDCHAR
STARTCHAR element
ENCODING 8712
BBX 4 10 1 0
BITMAP
30
60
C0
C0
F0
C0
C0
C0
60
30
ENDCHAR
STARTCHAR summation
ENCODING 8721
BBX 6 9 0 0
BITMAP
FC
CC
60
30
18
30
60
CC
FC
ENDCHAR
STARTCHAR uni2219
ENCODING 8729
BBX 2 2 3 3
BITMAP
C0
C0
ENDCHAR
STARTCHAR radical
ENCODING 8730
BBX 7 11 0 0
BITMAP
0E
0C
0C
0C
0C
0C
EC
6C
6C
3C
1C
ENDCHAR
STARTCHAR infinity
ENCODING 8734
BBX 8 5 0 2
BITMAP
7E
DB
DB
DB
7E
ENDCHAR
STARTCHAR orthogonal
ENCODING 8735
BBX 6 3 0 2
BITMAP
C0
C0
FC
ENDCHAR
STARTCHAR intersection
ENCODING 8745
BBX 7 9 0 0
BITMAP
7C
C6
C6
C6
C6
C6
C6
C6
C6
ENDCHAR
STARTCHAR approxequal
ENCODING 8776
BBX 7 5 0 2
BITMAP
76
DC
00
7C
D8
ENDCHAR
STARTCHAR equivalence
ENCODING 8801
BBX 7 7 0 1
BITMAP
FE
00
00
FE
00
00
FE
ENDCHAR
STARTCHAR lessequal
ENCODING 8804
BBX 6 8 1 0
BITMAP
30
60
C0
40
20
10
00
FC
ENDCHAR
STARTCHAR greaterequal
ENCODING 8805
BBX 6 8 1 0
BITMAP
60
30
18
18
30
60
00
FC
ENDCHAR
STARTCHAR uni2300
ENCODING 8960
BBX 8 9 0 0
BITMAP
03
06
7E
DB
DB
F3
7E
60
C0
ENDCHAR
STARTCHAR house
ENCODING 8962
BBX 7 7 0 1
BITMAP
10
38
6C
C6
C6
C6
FE
ENDCHAR
STARTCHAR revlogicalnot
ENCODING 8976
BBX 6 4 0 2
BITMAP
FC
C0
C0
C0
ENDCHAR
STARTCHAR integraltp
ENCODING 8992
BBX 5 13 3 -3
BITMAP
70
D8
D8
C0
C0
C0
C0
C0
C0
C0
C0
C0
C0
ENDCHAR
STARTCHAR integralbt
ENCODING 8993
BBX 5 11 0 0
BITMAP
18
18
18
18
18
18
18
18
D8
D8
70
ENDCHAR
STARTCHAR SF100000
ENCODING 9472
BBX 8 1 0 4
BITMAP
FF
ENDCHAR
STARTCHAR SF110000
ENCODING 9474
BBX 2 15 3 -4
BITMAP
C0
C0
C0
C0
C0
C0
C0
C0
C0
C0
C0
C0
C0
C0
C0
ENDCHAR
STARTCHAR SF010000
ENCODING 9484
BBX 5 9 3 -4
BITMAP
F8
C0
C0
C0
C0
C0
C0
C0
C0
ENDCHAR
STARTCHAR SF030000
ENCODING 9488
BBX 5 9 0 -4
BITMAP
F8
18
18
18
18
18
18
18
18
ENDCHAR
STARTCHAR SF020000
ENCODING 9492
BBX 5 7 3 4
BITMAP
C0
C0
C0
C0
C0
C0
F8
ENDCHAR
STARTCHAR SF040000
ENCODING 9496
BBX 5 7 0 4
BITMAP
18
18
18
18
18
18
F8
ENDCHAR
STARTCHAR SF080000
ENCODING 9500
BBX 5 15 3 -4
BITMAP
C0
C0
C0
C0
C0
C0
F8
C0
C0
C0
C0
C0
C0
C0
C0
ENDCHAR
STARTCHAR SF090000
ENCODING 9508
BBX 5 15 0 -4
BITMAP
18
18
18
18
18
18
F8
18
18
18
18
18
18
18
18
ENDCHAR
STARTCHAR SF060000
ENCODING 9516
BBX 8 9 0 -4
BITMAP
FF
18
18
18
18
18
18
18
18
ENDCHAR
STARTCHAR SF070000
ENCODING 9524
BBX 8 7 0 4
BITMAP
18
18
18
18
18
18
FF
ENDCHAR
STARTCHAR SF050000
ENCODING 9532
BBX 8 15 0 -4
BITMAP
18
18
18
18
18
18
FF
18
18
18
18
18
18
18
18
ENDCHAR
STARTCHAR SF430000
ENCODING 9552
BBX 8 3 0 4
BITMAP
FF
00
FF
ENDCHAR
STARTCHAR SF240000
ENCODING 9553
BBX 5 15 2 -4
BITMAP
D8
D8
D8
D8
D8
D8
D8
D8
D8
D8
D8
D8
D8
D8
D8
ENDCHAR
STARTCHAR SF510000
ENCODING 9554
BBX 5 11 3 -4
BITMAP
F8
C0
F8
C0
C0
C0
C0
C0
C0
C0
C0
ENDCHAR
STARTCHAR SF520000
ENCODING 9555
BBX 6 9 2 -4
BITMAP
FC
D8
D8
D8
D8
D8
D8
D8
D8
ENDCHAR
STARTCHAR SF390000
ENCODING 9556
BBX 6 11 2 -4
BITMAP
FC
C0
DC
D8
D8
D8
D8
D8
D8
D8
D8
ENDCHAR
STARTCHAR SF220000
ENCODING 9557
BBX 5 11 0 -4
BITMAP
F8
18
F8
18
18
18
18
18
18
18
18
ENDCHAR
STARTCHAR SF210000
ENCODING 9558
BBX 7 9 0 -4
BITMAP
FE
36
36
36
36
36
36
36
36
ENDCHAR
STARTCHAR SF250000
ENCODING 9559
BBX 7 11 0 -4
BITMAP
FE
06
F6
36
36
36
36
36
36
36
36
ENDCHAR
STARTCHAR SF500000
ENCODING 9560
BBX 5 7 3 4
BITMAP
C0
C0
C0
C0
F8
C0
F8
ENDCHAR
STARTCHAR SF490000
ENCODING 9561
BBX 6 7 2 4
BITMAP
D8
D8
D8
D8
D8
D8
FC
ENDCHAR
STARTCHAR SF380000
ENCODING 9562
BBX 6 7 2 4
BITMAP
D8
D8
D8
D8
DC
C0
FC
ENDCHAR
STARTCHAR SF280000
ENCODING 9563
BBX 5 7 0 4
BITMAP
18
18
18
18
F8
18
F8
ENDCHAR
STARTCHAR SF270000
ENCODING 9564
BBX 7 7 0 4
BITMAP
36
36
36
36
36
36
FE
ENDCHAR
STARTCHAR SF260000
ENCODING 9565
BBX 7 7 0 4
BITMAP
36
36
36
36
F6
06
FE
ENDCHAR
STARTCHAR SF360000
ENCODING 9566
BBX 5 15 3 -4
BITMAP
C0
C0
C0
C0
F8
C0
F8
C0
C0
C0
C0
C0
C0
C0
C0
ENDCHAR
STARTCHAR SF370000
ENCODING 9567
BBX 6 15 2 -4
BITMAP
D8
D8
D8
D8
D8
D8
DC
D8
D8
D8
D8
D8
D8
D8
D8
ENDCHAR
STARTCHAR SF420000
ENCODING 9568
BBX 6 15 2 -4
BITMAP
D8
D8
D8
D8
DC
C0
DC
D8
D8
D8
D8
D8
D8
D8
D8
ENDCHAR
STARTCHAR SF190000
ENCODING 9569
BBX 5 15 0 -4
BITMAP
18
18
18
18
F8
18
F8
18
18
18
18
18
18
18
18
ENDCHAR
STARTCHAR SF200000
ENCODING 9570
BBX 7 15 0 -4
BITMAP
36
36
36
36
36
36
F6
36
36
36
36
36
36
36
36
ENDCHAR
STARTCHAR SF230000
ENCODING 9571
BBX 7 15 0 -4
BITMAP
36
36
36
36
F6
06
F6
36
36
36
36
36
36
36
36
ENDCHAR
STARTCHAR SF470000
ENCODING 9572
BBX 8 11 0 -4
BITMAP
FF
00
FF
18
18
18
18
18
18
18
18
ENDCHAR
STARTCHAR SF480000
ENCODING 9573
BBX 8 9 0 -4
BITMAP
FF
36
36
36
36
36
36
36
36
ENDCHAR
STARTCHAR SF410000
ENCODING 9574
BBX 8 11 0 -4
BITMAP
FF
00
F7
36
36
36
36
36
36
36
36
ENDCHAR
STARTCHAR SF450000
ENCODING 9575
BBX 8 7 0 4
BITMAP
18
18
18
18
FF
00
FF
ENDCHAR
STARTCHAR SF460000
ENCODING 9576
BBX 8 7 0 4
BITMAP
36
36
36
36
36
36
FF
ENDCHAR
STARTCHAR SF400000
ENCODING 9577
BBX 8 7 0 4
BITMAP
36
36
36
36
F7
00
FF
ENDCHAR
STARTCHAR SF540000
ENCODING 9578
BBX 8 15 0 -4
BITMAP
18
18
18
18
FF
18
FF
18
18
18
18
18
18
18
18
ENDCHAR
STARTCHAR SF530000
ENCODING 9579
BBX 8 15 0 -4
BITMAP
36
36
36
36
36
36
FF
36
36
36
36
36
36
36
36
ENDCHAR
STARTCHAR SF440000
ENCODING 9580
BBX 8 15 0 -4
BITMAP
36
36
36
36
F7
00
F7
36
36
36
36
36
36
36
36
ENDCHAR
STARTCHAR upblock
ENCODING 9600
BBX 8 6 0 5
BITMAP
FF
FF
FF
FF
FF
FF
ENDCHAR
STARTCHAR dnblock
ENCODING 9604
BBX 8 9 0 -4
BITMAP
FF
FF
FF
FF
FF
FF
FF
FF
FF
ENDCHAR
STARTCHAR block
ENCODING 9608
BBX 8 15 0 -4
BITMAP
FF
FF
FF
FF
FF
FF
FF
FF
FF
FF
FF
FF
FF
FF
FF
ENDCHAR
STARTCHAR lfblock
ENCODING 9612
BBX 4 15 0 -4
BITMAP
F0
F0
F0
F0
F0
F0
F0
F0
F0
F0
F0
F0
F0
F0
F0
ENDCHAR
STARTCHAR rtblock
ENCODING 9616
BBX 4 15 4 -4
BITMAP
F0
F0
F0
F0
F0
F0
F0
F0
F0
F0
F0
F0
F0
F0
F0
ENDCHAR
STARTCHAR ltshade
ENCODING 9617
BBX 7 15 1 -4
BITMAP
22
88
22
AA
88
22
88
22
88
22
88
22
88
22
88
ENDCHAR
STARTCHAR shade
ENCODING 9618
BBX 8 15 0 -4
BITMAP
55
AA
55
FF
AA
55
AA
55
AA
55
AA
55
AA
55
AA
ENDCHAR
STARTCHAR dkshade
ENCODING 9619
BBX 8 15 0 -4
BITMAP
DD
77
DD
FF
77
DD
77
DD
77
DD
77
DD
77
DD
77
ENDCHAR
STARTCHAR filledbox
ENCODING 9632
BBX 5 7 1 1
BITMAP
F8
F8
F8
F8
F8
F8
F8
ENDCHAR
STARTCHAR filledrect
ENCODING 9644
BBX 7 4 0 0
BITMAP
FE
FE
FE
FE
ENDCHAR
STARTCHAR triagup
ENCODING 9650
BBX 7 6 0 1
BITMAP
30
38
78
7C
FC
FE
ENDCHAR
STARTCHAR triagrt
ENCODING 9658
BBX 7 10 0 0
BITMAP
80
C0
E0
F8
FE
F8
F0
E0
C0
80
ENDCHAR
STARTCHAR triagdn
ENCODING 9660
BBX 7 7 0 1
BITMAP
FE
FE
7C
7C
78
38
10
ENDCHAR
STARTCHAR triaglf
ENCODING 9668
BBX 7 10 0 0
BITMAP
02
0E
1E
3E
FE
3E
1E
0E
06
02
ENDCHAR
STARTCHAR circle
ENCODING 9675
BBX 6 6 1 1
BITMAP
78
CC
84
84
CC
78
ENDCHAR
STARTCHAR invbullet
ENCODING 9688
BBX 8 15 0 -4
BITMAP
FF
FF
FF
FF
FF
E7
C3
C3
E7
FF
FF
FF
FF
FF
FF
ENDCHAR
STARTCHAR invcircle
ENCODING 9689
BBX 8 15 0 -4
BITMAP
FF
FF
FF
FF
C3
99
BD
BD
99
C3
FF
FF
FF
FF
FF
ENDCHAR
STARTCHAR smileface
ENCODING 9786
BBX 8 10 0 0
BITMAP
FF
81
A5
81
81
BD
99
81
81
FF
ENDCHAR
STARTCHAR invsmileface
ENCODING 9787
BBX 8 10 0 0
BITMAP
7E
FF
DB
FF
FF
C3
E7
FF
FF
7E
ENDCHAR
STARTCHAR sun
ENCODING 9788
BBX 8 8 0 0
BITMAP
18
DB
3C
E7
3C
DB
18
18
ENDCHAR
STARTCHAR female
ENCODING 9792
BBX 6 10 1 0
BITMAP
78
CC
CC
CC
CC
78
30
FC
30
30
ENDCHAR
STARTCHAR male
ENCODING 9794
BBX 7 10 0 0
BITMAP
0E
0E
1A
30
78
CC
CC
CC
CC
78
ENDCHAR
STARTCHAR spade
ENCODING 9824
BBX 6 9 1 0
BITMAP
20
30
78
FC
FC
78
30
30
78
ENDCHAR
STARTCHAR club
ENCODING 9827
BBX 8 9 0 0
BITMAP
18
3C
3C
E7
E7
E7
18
18
3C
ENDCHAR
STARTCHAR heart
ENCODING 9829
BBX 7 8 0 0
BITMAP
48
FC
FE
FE
FE
7C
38
10
ENDCHAR
STARTCHAR diamond
ENCODING 9830
BBX 6 6 0 1
BITMAP
30
78
FC
7C
38
10
ENDCHAR
STARTCHAR musicalnote
ENCODING 9834
BBX 8 10 0 0
BITMAP
3F
33
3F
30
30
30
30
70
F0
E0
ENDCHAR
STARTCHAR musicalnotedbl
ENCODING 9835
BBX 8 10 0 0
BITMAP
7F
63
7F
63
63
63
67
E7
E6
C0
ENDCHAR
STARTCHAR .notdef
ENCODING -1
SWIDTH1 1000 0
DWIDTH1 15 0
BBX 4 11 1 0
BITMAP
F0
90
90
90
90
90
90
90
90
90
F0
ENDCHAR
STARTCHAR glyph1
ENCODING -1
BBX 1 1 0 0
BITMAP
00
ENDCHAR
STARTCHAR glyph2
ENCODING -1
SWIDTH1 1000 0
DWIDTH1 15 0
BBX 1 1 0 0
BITMAP
00
ENDCHAR
ENDFONT
